<?xml version="1.0" encoding="UTF-8" standalone="no" ?>
<!DOCTYPE svg PUBLIC "-//W3C//DTD SVG 1.1//EN" "http://www.w3.org/Graphics/SVG/1.1/DTD/svg11.dtd">
<svg xmlns="http://www.w3.org/2000/svg" xmlns:xlink="http://www.w3.org/1999/xlink" version="1.1" width="640" height="640" viewBox="0 0 640 640" xml:space="preserve">
<desc>Created with Fabric.js 5.3.0</desc>
<defs>
</defs>
<g transform="matrix(2.8916898547 -1.4319752335 1.473389573 2.8104096369 225.3874636091 412.4991331145)" id="66D3cwWCjzSQEx_AMQKSO"  >
<path style="stroke: rgb(179,164,241); stroke-width: 0; stroke-dasharray: none; stroke-linecap: butt; stroke-dashoffset: 0; stroke-linejoin: miter; stroke-miterlimit: 4; fill: rgb(99,244,255); fill-opacity: 0.5; fill-rule: nonzero; opacity: 1;"  transform=" translate(0, 0)" d="M 0 -65.88235 C 36.36706 -65.88235 65.88235 -36.36706 65.88235 0 C 65.88235 36.36706 36.36706 65.88235 0 65.88235 C -36.36706 65.88235 -65.88235 36.36706 -65.88235 0 C -65.88235 -36.36706 -36.36706 -65.88235 0 -65.88235 z" stroke-linecap="round" />
</g>
<g transform="matrix(2.8916898547 -1.4319752335 1.473389573 2.8104096369 414.6125608233 412.578191663)" id="KX9Px_msyTP8xE58JjM1U"  >
<path style="stroke: rgb(179,164,241); stroke-width: 0; stroke-dasharray: none; stroke-linecap: butt; stroke-dashoffset: 0; stroke-linejoin: miter; stroke-miterlimit: 4; fill: rgb(35,107,183); fill-opacity: 0.5; fill-rule: nonzero; opacity: 1;"  transform=" translate(0, 0)" d="M 0 -65.88235 C 36.36706 -65.88235 65.88235 -36.36706 65.88235 0 C 65.88235 36.36706 36.36706 65.88235 0 65.88235 C -36.36706 65.88235 -65.88235 36.36706 -65.88235 0 C -65.88235 -36.36706 -36.36706 -65.88235 0 -65.88235 z" stroke-linecap="round" />
</g>
<g transform="matrix(2.8916898547 -1.4319752335 1.473389573 2.8104096369 317.5421771006 227.421808337)" id="BxV2pzREK1y2ppDRCoYOJ"  >
<path style="stroke: rgb(179,164,241); stroke-width: 0; stroke-dasharray: none; stroke-linecap: butt; stroke-dashoffset: 0; stroke-linejoin: miter; stroke-miterlimit: 4; fill: rgb(57,188,247); fill-opacity: 0.5; fill-rule: nonzero; opacity: 1;"  transform=" translate(0, 0)" d="M 0 -65.88235 C 36.36706 -65.88235 65.88235 -36.36706 65.88235 0 C 65.88235 36.36706 36.36706 65.88235 0 65.88235 C -36.36706 65.88235 -65.88235 36.36706 -65.88235 0 C -65.88235 -36.36706 -36.36706 -65.88235 0 -65.88235 z" stroke-linecap="round" />
</g>
<g transform="matrix(1.2004146631 0 0 1.1666731589 37.4531061247 412.8054747452)" id="7kSTAVGhvZg_F58a267BZ"  >
<path style="stroke: rgb(0,0,0); stroke-width: 1; stroke-dasharray: none; stroke-linecap: butt; stroke-dashoffset: 0; stroke-linejoin: miter; stroke-miterlimit: 4; fill: rgb(255,255,255); fill-opacity: 0; fill-rule: nonzero; opacity: 1;"  transform=" translate(0, 0)" d="M 0 0" stroke-linecap="round" />
</g>
<g transform="matrix(2.590074514 -0.4893081412 0.5177448584 2.5886983142 404.8304912435 377.5284634577)" id="8U0gW3wWJwgxTecOhNUZ2"  >
<path style="stroke: rgb(123,154,217); stroke-width: 0; stroke-dasharray: none; stroke-linecap: butt; stroke-dashoffset: 0; stroke-linejoin: miter; stroke-miterlimit: 4; fill: rgb(0,0,0); fill-rule: nonzero; opacity: 1;"  transform=" translate(0, 0)" d="M -43.92157 -43.92157 L 43.92157 -43.92157 L 43.92157 43.92157 L -43.92157 43.92157 z" stroke-linecap="round" />
</g>
<g transform="matrix(-2.5900745141 -0.4893081412 -0.5177448584 2.5886983142 230.2538646563 377.5284617802)" id="7ivZY9X7bMIwi1vlShEyq"  >
<path style="stroke: rgb(123,154,217); stroke-width: 0; stroke-dasharray: none; stroke-linecap: butt; stroke-dashoffset: 0; stroke-linejoin: miter; stroke-miterlimit: 4; fill: rgb(0,0,0); fill-rule: nonzero; opacity: 1;"  transform=" translate(0, 0)" d="M -43.92157 -43.92157 L 43.92157 -43.92157 L 43.92157 43.92157 L -43.92157 43.92157 z" stroke-linecap="round" />
</g>
<g transform="matrix(2.1110662203 -0.3827296464 0.4219931416 2.0248418267 388.6873926578 376.5807581782)" id="LnJFbBOWNVAcWFsZm8TMS"  >
<path style="stroke: rgb(123,154,217); stroke-width: 0; stroke-dasharray: none; stroke-linecap: butt; stroke-dashoffset: 0; stroke-linejoin: miter; stroke-miterlimit: 4; fill: rgb(255,255,255); fill-rule: nonzero; opacity: 1;"  transform=" translate(0, 0)" d="M -43.92157 -43.92157 L 43.92157 -43.92157 L 43.92157 43.92157 L -43.92157 43.92157 z" stroke-linecap="round" />
</g>
<g transform="matrix(-2.1110662203 -0.3827296464 -0.4219931416 2.0248418267 246.39696153 376.5807568659)" id="7ZshU7nsftsQoEBeS8P9L"  >
<path style="stroke: rgb(123,154,217); stroke-width: 0; stroke-dasharray: none; stroke-linecap: butt; stroke-dashoffset: 0; stroke-linejoin: miter; stroke-miterlimit: 4; fill: rgb(255,255,255); fill-rule: nonzero; opacity: 1;"  transform=" translate(0, 0)" d="M -43.92157 -43.92157 L 43.92157 -43.92157 L 43.92157 43.92157 L -43.92157 43.92157 z" stroke-linecap="round" />
</g>
<g transform="matrix(3.9405487532 0 0 3.8244331556 317.6027191668 389.3295338026)" id="YypgffPDnzIcnXOAEkQnx"  >
<path style="stroke: rgb(0,0,0); stroke-width: 1; stroke-dasharray: none; stroke-linecap: butt; stroke-dashoffset: 0; stroke-linejoin: miter; stroke-miterlimit: 4; fill: rgb(255,255,255); fill-opacity: 0; fill-rule: nonzero; opacity: 1;"  transform=" translate(0, 0)" d="M 0 -24.446 L 0 24.44599" stroke-linecap="round" />
</g>
<g transform="matrix(1.2004146631 0 0 1.1666731589 28.2473117588 190.7563088218)" id="bFFyGrgbUBaDafFEKCQNa"  >
<path style="stroke: rgb(0,0,0); stroke-width: 1; stroke-dasharray: none; stroke-linecap: butt; stroke-dashoffset: 0; stroke-linejoin: miter; stroke-miterlimit: 4; fill: rgb(255,255,255); fill-opacity: 0; fill-rule: nonzero; opacity: 1;"  transform=" translate(0, 0)" d="M 0 0" stroke-linecap="round" />
</g>
</svg>